<svg width="110" height="94" viewBox="0 0 110 94" fill="none" xmlns="http://www.w3.org/2000/svg">
<path d="M71.7667 21.9506C53.5141 3.69798 27.7264 -3.20682 2.78439 3.48443C1.50746 3.83443 0.736344 5.14945 1.07593 6.43447C1.41983 7.71517 2.73803 8.48012 4.02352 8.13869C27.2811 1.90023 51.3336 8.33828 68.356 25.3607C84.3799 41.376 90.904 63.572 86.4874 85.4922L71.7904 70.7951C70.8506 69.8554 69.3232 69.8608 68.3864 70.7976C67.4496 71.7344 67.4485 73.2661 68.3839 74.2016L86.6876 92.5052C87.6273 93.4449 89.1548 93.4396 90.0916 92.5028L108.421 74.1729C109.362 73.2318 109.359 71.7044 108.424 70.7689C107.488 69.8334 105.957 69.8346 105.02 70.7714L91.6693 84.1219C95.4985 61.3698 88.3808 38.5558 71.7684 21.9508L71.7667 21.9506Z" fill="black"/>
</svg>
